<svg width="23" height="24" fill="none" xmlns="http://www.w3.org/2000/svg"><path d="M20.194 2.337C19.6 1.79 17.19.04 11.818.017c0 0-6.333-.38-9.418 2.452C.685 4.184.08 6.7.015 9.819c-.066 3.117-.146 8.957 5.484 10.542h.005l-.005 2.418s-.038.98.61 1.177c.777.244 1.237-.502 1.982-1.303.408-.44.97-1.088 1.397-1.58 3.853.324 6.81-.417 7.148-.525.779-.253 5.18-.815 5.893-6.656.74-6.028-.357-9.834-2.335-11.555zm.652 11.114c-.605 4.875-4.172 5.185-4.828 5.396-.282.089-2.883.736-6.15.525 0 0-2.438 2.939-3.197 3.703-.249.248-.52.225-.516-.267 0-.324.019-4.018.019-4.018-.005 0-.005 0 0 0-4.772-1.322-4.49-6.295-4.44-8.896.052-2.602.545-4.735 1.998-6.17 2.61-2.366 7.987-2.015 7.987-2.015 4.542.019 6.717 1.388 7.224 1.847 1.673 1.434 2.526 4.866 1.903 9.895zM14.33 9.664c.019.403-.586.431-.604.028-.052-1.031-.535-1.533-1.529-1.59-.403-.023-.365-.627.033-.604 1.308.07 2.034.82 2.1 2.166zm.952.53c.047-1.988-1.196-3.544-3.553-3.718-.399-.028-.357-.632.042-.604 2.718.197 4.167 2.067 4.115 4.336-.004.403-.614.384-.604-.014zm2.203.628c.005.403-.605.408-.605.004-.028-3.82-2.573-5.901-5.662-5.925-.399-.004-.399-.604 0-.604 3.454.023 6.234 2.409 6.267 6.525zm-.53 4.598v.01c-.506.89-1.453 1.875-2.428 1.56l-.01-.014c-.988-.276-3.318-1.476-4.79-2.648A12.2 12.2 0 017.74 12.34a15.212 15.212 0 01-1.444-2.184c-.999-1.805-1.219-2.61-1.219-2.61-.314-.976.666-1.923 1.561-2.429h.01c.43-.225.843-.15 1.12.183 0 0 .58.694.83 1.036.234.318.548.83.712 1.115.286.511.108 1.032-.174 1.247l-.562.45c-.286.23-.249.656-.249.656s.835 3.155 3.952 3.952c0 0 .427.037.656-.248l.45-.563c.216-.281.736-.46 1.247-.173.69.389 1.566.993 2.147 1.542.328.267.403.675.178 1.106z" fill="#7B519D"/></svg>